<svg width="40" height="40" viewBox="0 0 40 40" fill="none" xmlns="http://www.w3.org/2000/svg">
<g clip-path="url(#clip0_3122_11210)">
<path d="M40 0H0V40H40V0Z" fill="#001405"/>
<mask id="mask0_3122_11210" style="mask-type:luminance" maskUnits="userSpaceOnUse" x="6" y="6" width="28" height="28">
<path d="M33.2292 6.5625H6.5625V33.4442H33.2292V6.5625Z" fill="white"/>
</mask>
<g mask="url(#mask0_3122_11210)">
<path d="M15.4514 26.1442V31.7832C15.4514 32.7023 16.1899 33.4445 17.0993 33.4445H22.6925C23.604 33.4445 24.3403 32.7001 24.3403 31.7832V28.9637C24.3403 27.725 24.8371 26.6048 25.6422 25.7954C26.4472 24.9838 27.5583 24.4829 28.7848 24.4829H31.5813C32.4929 24.4829 33.2291 23.7383 33.2291 22.8216V17.1848C33.2291 16.2658 32.4907 15.5234 31.5813 15.5234H25.9904C25.0789 15.5234 24.3425 16.268 24.3425 17.1848V20.1407C24.3425 22.5398 22.4131 24.4829 20.0356 24.4829H17.1037C16.1922 24.4829 15.4559 25.2275 15.4559 26.1442H15.4514Z" fill="#ECEFEC"/>
<path d="M6.5625 17.1842V22.8225C6.5625 23.7414 7.30103 24.4836 8.21031 24.4836H13.8036C14.7151 24.4836 15.4514 23.7392 15.4514 22.8225V20.0033C15.4514 18.7648 15.9482 17.6447 16.7532 16.8354C17.5583 16.0238 18.6694 15.5231 19.8958 15.5231H22.6925C23.604 15.5231 24.3403 14.7786 24.3403 13.862V8.22359C24.3403 7.30472 23.6018 6.5625 22.6925 6.5625H17.1014C16.1899 6.5625 15.4536 7.30697 15.4536 8.22359V11.1792C15.4536 13.578 13.5241 15.5208 11.1467 15.5208H8.21031C7.29881 15.5208 6.5625 16.2653 6.5625 17.1819V17.1842Z" fill="#ECEFEC"/>
</g>
</g>
<defs>
<clipPath id="clip0_3122_11210">
<rect width="40" height="40" rx="20" fill="white"/>
</clipPath>
</defs>
</svg>
