<svg width="64" height="64" viewBox="0 0 64 64" fill="none" xmlns="http://www.w3.org/2000/svg">
<path fill-rule="evenodd" clip-rule="evenodd" d="M29.2421 17.6968C37.1935 9.7455 50.0851 9.7455 58.0365 17.6968C65.9878 25.6482 65.9878 38.5398 58.0365 46.4912C50.0851 54.4425 37.1935 54.4425 29.2421 46.4912L14.845 32.094L29.2421 17.6968ZM52.0345 23.6988C47.398 19.0623 39.8807 19.0623 35.2441 23.6988L26.8489 32.094L35.2441 40.4892C39.8807 45.1257 47.398 45.1257 52.0345 40.4892C56.671 35.8527 56.671 28.3354 52.0345 23.6988Z" fill="#F0754E"/>
<path fill-rule="evenodd" clip-rule="evenodd" d="M28.7559 23.6988C24.1193 19.0623 16.602 19.0623 11.9655 23.6988C7.32894 28.3354 7.32894 35.8527 11.9655 40.4892C16.602 45.1257 24.1193 45.1257 28.7559 40.4892L37.1511 32.094L28.7559 23.6988ZM5.9635 17.6968C13.9148 9.7455 26.8065 9.7455 34.7578 17.6968L49.155 32.094L34.7578 46.4912C26.8065 54.4425 13.9148 54.4425 5.9635 46.4912C-1.98783 38.5398 -1.98783 25.6482 5.9635 17.6968Z" fill="#3173D7"/>
</svg>
