<svg width="48" height="48" viewBox="0 0 48 48" fill="none" xmlns="http://www.w3.org/2000/svg">
<path d="M48 0H0V48H48V0Z" fill="#0A0D12"/>
<path d="M33.3375 24L37.1504 27.8179L41 24L37.1518 20.1481L33.3375 24ZM24.0163 14.6698L17.4492 21.2432L13.5996 17.3927L24.0163 7L34.433 17.4267L30.5833 21.2772L24.0163 14.6698ZM10.8808 20.1481L14.695 24L10.8468 27.8519L7 24L10.8808 20.1481ZM24.0163 33.3302L30.5833 26.7228L34.433 30.5747L24.0163 41L13.5996 30.5733L17.4492 26.7228L24.0163 33.3302ZM24.0163 27.8193L20.168 23.966L24.0163 20.1495L27.8645 24L24.0163 27.8179V27.8193Z" fill="#F3BA2F"/>
</svg>
