<svg width="48" height="48" viewBox="0 0 48 48" fill="none" xmlns="http://www.w3.org/2000/svg">
<g clip-path="url(#clip0_1_2)">
<circle cx="23.9843" cy="23.9843" r="23.9843" fill="white"/>
<path d="M22.8691 0.0376715C18.8356 0.307829 15.5372 1.25652 12.2827 3.07851C10.2094 4.23453 8.55705 5.51621 6.78532 7.32563C3.03453 11.1644 0.747622 16.0523 0.150763 21.4995C0.0251088 22.6555 0.00626059 25.1937 0.113067 26.2618C0.647098 31.3508 2.60102 35.912 5.88061 39.7068C6.58427 40.5173 8.12354 42.0188 8.89631 42.6345C12.5906 45.5937 16.8063 47.334 21.4995 47.8492C22.6555 47.9748 25.1937 47.9937 26.2618 47.8869C31.0743 47.3843 35.3591 45.6314 39.1099 42.6282C39.9078 41.9937 41.4408 40.4984 42.1759 39.644C45.355 35.9623 47.3089 31.4261 47.8492 26.5005C47.9748 25.3445 47.9937 22.8063 47.8869 21.7382C47.3529 16.6492 45.3989 12.0879 42.1194 8.29317C41.4157 7.4827 39.8764 5.98113 39.1036 5.36542C35.4283 2.42511 31.1309 0.640813 26.5633 0.163326C25.6586 0.0628024 23.5162 -0.00630755 22.8691 0.0376715ZM34.668 13.0429C35.3403 13.3193 35.7612 14.1738 35.5413 14.7958C35.2586 15.5874 31.0303 22.0712 30.2324 22.9445C29.6481 23.5727 28.8251 23.868 27.9895 23.7424C27.556 23.6733 27.2104 23.5036 24.7853 22.1591C20.2743 19.6586 13.8722 15.8764 13.3885 15.4303C12.9801 15.0534 12.823 14.3623 13.0303 13.8597C13.156 13.5581 13.5015 13.1874 13.7906 13.0618C14.0293 12.9487 14.5131 12.9424 24.2387 12.9424C33.311 12.9424 34.4607 12.9549 34.668 13.0429ZM20.7455 24.1696C22.8879 25.1748 34.7874 32.0858 35.4157 32.689C36.1131 33.3612 36.0125 34.3853 35.1895 34.9633L34.9193 35.1518L24.1696 35.1707C16.8691 35.1832 13.3382 35.1707 13.1874 35.1267C12.534 34.9382 12.0879 34.2974 12.1382 33.6188C12.1633 33.2921 12.2262 33.1539 12.9361 31.979C14.3811 29.5853 16.4921 26.3623 17.4471 25.0994C18.1445 24.1759 18.6345 23.9309 19.6963 23.956C20.2492 23.9686 20.3748 23.9937 20.7455 24.1696Z" fill="#2461ED"/>
</g>
<defs>
<clipPath id="clip0_1_2">
<rect width="48" height="48" fill="white"/>
</clipPath>
</defs>
</svg>
