<svg width="24" height="24" viewBox="0 0 24 24" fill="none" xmlns="http://www.w3.org/2000/svg">
<path d="M12 24C18.6274 24 24 18.6274 24 12C24 5.37258 18.6274 0 12 0C5.37258 0 0 5.37258 0 12C0 18.6274 5.37258 24 12 24Z" fill="white"/>
<path opacity="0.6" d="M11.9118 9.91577L7 12.1496L11.9118 15.0515L16.8217 12.1496L11.9118 9.91577Z" fill="#010101"/>
<path opacity="0.45" d="M7 12.1496L11.9118 15.0515V4L7 12.1496Z" fill="#010101"/>
<path opacity="0.8" d="M11.9102 4V15.0515L16.82 12.1496L11.9102 4Z" fill="#010101"/>
<path opacity="0.45" d="M7 13.0803L11.9118 20.0001V15.9822L7 13.0803Z" fill="#010101"/>
<path opacity="0.8" d="M11.9102 15.982V19.9998L16.8239 13.0801L11.9102 15.982Z" fill="#010101"/>
</svg>
