<svg width="24" height="24" viewBox="0 0 24 24" fill="none" xmlns="http://www.w3.org/2000/svg">
<path d="M12 24C18.6274 24 24 18.6274 24 12C24 5.37258 18.6274 0 12 0C5.37258 0 0 5.37258 0 12C0 18.6274 5.37258 24 12 24Z" fill="white"/>
<path opacity="0.6" d="M16.9224 11.1475L17.0568 11.3536C18.572 13.678 18.2336 16.7223 16.2431 18.6726C15.0721 19.82 13.5374 20.3937 12.0026 20.3939C12.0026 20.3939 12.0026 20.3939 16.9224 11.1475Z" fill="#00A3FF"/>
<path opacity="0.2" d="M12.0021 13.9577L16.9219 11.1475C12.0021 20.3939 12.0021 20.3939 12.0021 20.3939C12.0021 18.3801 12.0021 16.0725 12.0021 13.9577Z" fill="#00A3FF"/>
<path d="M7.07758 11.1475L6.94323 11.3536C5.42795 13.678 5.76637 16.7223 7.75686 18.6726C8.92786 19.82 10.4626 20.3937 11.9974 20.3939C11.9974 20.3939 11.9974 20.3939 7.07758 11.1475Z" fill="#00A3FF"/>
<path opacity="0.6" d="M11.996 13.9577L7.07617 11.1475C11.996 20.3939 11.996 20.3939 11.996 20.3939C11.996 18.3801 11.996 16.0725 11.996 13.9577Z" fill="#00A3FF"/>
<path opacity="0.2" d="M12.0039 7.67969V12.5265L16.2418 10.1047L12.0039 7.67969Z" fill="#00A3FF"/>
<path opacity="0.6" d="M12.0026 7.67969L7.76172 10.1046L12.0026 12.5265V7.67969Z" fill="#00A3FF"/>
<path d="M12.0026 3.60352L7.76172 10.1062L12.0026 7.67445V3.60352Z" fill="#00A3FF"/>
<path opacity="0.6" d="M12.0039 7.67371L16.245 10.1055L12.0039 3.59961V7.67371Z" fill="#00A3FF"/>
</svg>
