<svg width="48" height="48" viewBox="0 0 48 48" fill="none" xmlns="http://www.w3.org/2000/svg">
<g clip-path="url(#clip0_14566_4)">
<path d="M24 48C37.2552 48 48 37.2552 48 24C48 10.7448 37.2552 0 24 0C10.7448 0 0 10.7448 0 24C0 37.2552 10.7448 48 24 48Z" fill="#335DE5"/>
<path d="M38.9633 22.9384C38.771 20.3308 37.8941 17.8233 36.4173 15.6542C34.9404 13.485 32.9175 11.7313 30.5407 10.5698C28.1639 9.40832 25.5255 8.87758 22.8795 9.02372C20.2335 9.16987 17.6721 9.99291 15.4414 11.4159C13.2185 12.8389 11.4032 14.8004 10.1878 17.1233L10.1263 17.2387C9.74172 18.0233 9.48019 18.8617 9.35712 19.7232C8.9956 22.2692 9.55711 24.5383 11.0109 26.2844C12.6031 28.192 15.203 29.3304 18.3259 29.4765C22.118 29.6611 25.8947 28.6458 28.5715 26.7767L30.1561 27.7074C28.6408 28.9996 25.1332 31.3303 19.3258 31.6457C12.8108 31.9995 10.0879 29.915 10.0648 29.8919L9.61096 30.4457L9.01099 31.1611C9.12637 31.2534 11.7339 33.3302 17.849 33.3302C18.349 33.3302 18.8797 33.3302 19.4258 33.284C26.4563 32.8994 30.3176 29.8842 31.6714 28.592L33.0021 29.3842C32.1098 30.538 31.0099 31.5226 29.7561 32.2918C25.3486 35.0916 19.7335 35.4532 15.8106 35.2609L15.726 36.8992C16.3875 36.93 17.0183 36.9454 17.6336 36.9454C28.7023 36.9454 33.179 31.9841 34.4328 30.2073L35.4712 30.8149C34.4789 32.4841 33.1252 33.9225 31.5022 35.0301C29.5638 36.3608 27.3024 37.1608 24.9563 37.3684L25.1025 38.9991C27.7408 38.7684 30.2791 37.8607 32.456 36.3762C34.6328 34.884 36.3788 32.861 37.5249 30.5073C38.6633 28.1535 39.1633 25.546 38.971 22.9384H38.9633ZM32.5713 23.1922C31.8406 23.1922 31.2406 22.6077 31.2406 21.8846C31.2406 21.1616 31.8329 20.577 32.5713 20.577C33.3098 20.577 33.902 21.1616 33.902 21.8846C33.902 22.6077 33.3098 23.1922 32.5713 23.1922Z" fill="#ECECEC"/>
</g>
<defs>
<clipPath id="clip0_14566_4">
<rect width="48" height="48" fill="white"/>
</clipPath>
</defs>
</svg>
