<svg viewBox="0 0 40 40" fill="none" xmlns="http://www.w3.org/2000/svg">
  <g clip-path="url(#clip0_3235_2176)">
    <path
      d="M20 40C31.0457 40 40 31.0457 40 20C40 8.9543 31.0457 0 20 0C8.9543 0 0 8.9543 0 20C0 31.0457 8.9543 40 20 40Z"
      fill="#2C2C34" />
    <path fill-rule="evenodd" clip-rule="evenodd"
      d="M30.3797 13.7661L30.9935 12.2311C30.9935 12.2311 30.2123 11.3782 29.2636 10.4117C28.3149 9.44522 26.3059 10.0137 26.3059 10.0137L24.018 7.36914H20H15.9821L13.6941 10.0137C13.6941 10.0137 11.6852 9.44522 10.7365 10.4117C9.78778 11.3782 9.00653 12.2311 9.00653 12.2311L9.62044 13.7661L8.83911 16.0403C8.83911 16.0403 11.1369 24.9071 11.4061 25.9899C11.9363 28.122 12.299 28.9463 13.8058 30.0266C15.3124 31.1068 18.0469 32.9831 18.4934 33.2673C18.9398 33.5516 19.4978 34.0358 20 34.0358C20.5023 34.0358 21.0604 33.5516 21.5068 33.2673C21.9532 32.9831 24.6876 31.1068 26.1944 30.0266C27.7011 28.9463 28.0639 28.122 28.5939 25.9899C28.8632 24.9071 31.1609 16.0403 31.1609 16.0403L30.3797 13.7661Z"
      fill="url(#paint0_linear_3235_2176)" />
    <path fill-rule="evenodd" clip-rule="evenodd"
      d="M20.0002 23.9642C20.1532 23.9642 21.1332 24.3167 21.9197 24.7313C22.7061 25.1459 23.276 25.4391 23.4582 25.5553C23.6404 25.6715 23.5293 25.8905 23.3634 26.01C23.1974 26.1296 20.9674 27.8888 20.7509 28.0833C20.5345 28.2778 20.2164 28.599 20.0002 28.599C19.784 28.599 19.4659 28.2778 19.2495 28.0833C19.033 27.8888 16.8031 26.1296 16.6371 26.01C16.4711 25.8905 16.3601 25.6715 16.5423 25.5553C16.7244 25.4391 17.2944 25.1459 18.0809 24.7313C18.8672 24.3167 19.8473 23.9642 20.0002 23.9642ZM20.0122 11.4336C20.0873 11.4358 20.5104 11.4567 21.1164 11.6624C21.786 11.8898 22.5114 12.1742 22.8463 12.1742C23.1811 12.1742 25.6644 11.6908 25.6644 11.6908C25.6644 11.6908 28.6074 15.3153 28.6074 16.09C28.6074 16.8647 28.2371 17.0691 27.8649 17.4718C27.4927 17.8745 25.867 19.6333 25.6583 19.8591C25.4495 20.0849 25.0149 20.4274 25.2705 21.0438C25.5262 21.6601 25.9033 22.4444 25.4839 23.2399C25.0645 24.0354 24.346 24.5664 23.8856 24.4787C23.4253 24.3908 22.344 23.8152 21.9464 23.5522C21.5489 23.2893 20.2886 22.2303 20.2886 21.8253C20.2886 21.4202 21.5913 20.6928 21.8319 20.5274C22.0727 20.3623 23.1704 19.7226 23.1929 19.4715C23.2153 19.2203 23.2067 19.1468 22.8828 18.5263C22.5589 17.9059 21.9754 17.078 22.0725 16.5271C22.1696 15.9763 23.1105 15.6898 23.7819 15.4315C24.4533 15.1733 25.746 14.6853 25.9074 14.6095C26.069 14.5336 26.0273 14.4613 25.538 14.4141C25.0489 14.3668 23.6607 14.1791 23.0349 14.3568C22.409 14.5346 21.3398 14.805 21.2532 14.9483C21.1665 15.0918 21.0902 15.0966 21.1791 15.5913C21.268 16.0858 21.7259 18.4593 21.7704 18.8809C21.8149 19.3025 21.9018 19.5812 21.4556 19.6851C21.0094 19.789 20.2584 19.9695 20.0003 19.9695C19.7421 19.9695 18.991 19.789 18.5449 19.6851C18.0986 19.5812 18.1856 19.3025 18.23 18.8809C18.2745 18.4593 18.7324 16.0858 18.8214 15.5913C18.9103 15.0966 18.8339 15.0918 18.7474 14.9483C18.6607 14.805 17.5914 14.5346 16.9656 14.3568C16.3398 14.1791 14.9516 14.3668 14.4624 14.4141C13.9733 14.4613 13.9315 14.5336 14.093 14.6095C14.2545 14.6853 15.5472 15.1733 16.2185 15.4315C16.8899 15.6898 17.8309 15.9763 17.9279 16.5271C18.025 17.078 17.4416 17.9059 17.1177 18.5263C16.7938 19.1468 16.7852 19.2203 16.8077 19.4715C16.8301 19.7226 17.9279 20.3623 18.1685 20.5274C18.4092 20.6928 19.7118 21.4202 19.7118 21.8253C19.7118 22.2303 18.4517 23.2893 18.054 23.5522C17.6564 23.8152 16.5753 24.3908 16.1149 24.4787C15.6544 24.5664 14.9359 24.0354 14.5165 23.2399C14.0972 22.4444 14.4743 21.6601 14.7299 21.0438C14.9855 20.4274 14.5509 20.0849 14.3422 19.8591C14.1334 19.6333 12.5078 17.8745 12.1355 17.4718C11.7634 17.0691 11.3932 16.8647 11.3932 16.09C11.3932 15.3153 14.3361 11.6908 14.3361 11.6908C14.3361 11.6908 16.8194 12.1742 17.1542 12.1742C17.489 12.1742 18.2145 11.8898 18.8842 11.6624C19.49 11.4567 19.9132 11.4358 19.9883 11.4336H20.0122Z"
      fill="white" />
    <mask id="mask0_3235_2176" style="mask-type:alpha" maskUnits="userSpaceOnUse" x="10" y="7"
      width="20" height="6">
      <path
        d="M26.3062 10.0137L24.0182 7.36914H20.0003H15.9823L13.6944 10.0137C13.6944 10.0137 11.6854 9.44522 10.7367 10.4117C10.7367 10.4117 13.4153 10.1654 14.3361 11.691C14.3361 11.691 16.8194 12.1742 17.1542 12.1742C17.489 12.1742 18.2145 11.89 18.8842 11.6626C19.5538 11.4351 20.0003 11.4335 20.0003 11.4335C20.0003 11.4335 20.4467 11.4351 21.1164 11.6626C21.786 11.89 22.5114 12.1742 22.8463 12.1742C23.1811 12.1742 25.6644 11.691 25.6644 11.691C26.5852 10.1654 29.2638 10.4117 29.2638 10.4117C28.3151 9.44522 26.3062 10.0137 26.3062 10.0137Z"
        fill="white" />
    </mask>
    <g mask="url(#mask0_3235_2176)">
      <path
        d="M26.3062 10.0137L24.0182 7.36914H20.0003H15.9823L13.6944 10.0137C13.6944 10.0137 11.6854 9.44522 10.7367 10.4117C10.7367 10.4117 13.4153 10.1654 14.3361 11.691C14.3361 11.691 16.8194 12.1742 17.1542 12.1742C17.489 12.1742 18.2145 11.89 18.8842 11.6626C19.5538 11.4351 20.0003 11.4335 20.0003 11.4335C20.0003 11.4335 20.4467 11.4351 21.1164 11.6626C21.786 11.89 22.5114 12.1742 22.8463 12.1742C23.1811 12.1742 25.6644 11.691 25.6644 11.691C26.5852 10.1654 29.2638 10.4117 29.2638 10.4117C28.3151 9.44522 26.3062 10.0137 26.3062 10.0137Z"
        fill="url(#paint1_linear_3235_2176)" />
    </g>
  </g>
  <defs>
    <linearGradient id="paint0_linear_3235_2176" x1="8.83911" y1="20.8906" x2="31.1609" y2="20.8906"
      gradientUnits="userSpaceOnUse">
      <stop stop-color="#FF5500" />
      <stop offset="0.409877" stop-color="#FF5500" />
      <stop offset="0.581981" stop-color="#FF2000" />
      <stop offset="1" stop-color="#FF2000" />
    </linearGradient>
    <linearGradient id="paint1_linear_3235_2176" x1="11.1347" y1="9.80556" x2="29.2638" y2="9.80556"
      gradientUnits="userSpaceOnUse">
      <stop stop-color="#FF452A" />
      <stop offset="1" stop-color="#FF2000" />
    </linearGradient>
    <clipPath id="clip0_3235_2176">
      <rect width="40" height="40" fill="white" />
    </clipPath>
  </defs>
</svg>
