<svg viewBox="0 0 40 40" fill="none" xmlns="http://www.w3.org/2000/svg">
  <rect width="40" height="40" rx="20" fill="#8697FF" />
  <path
    d="M32.3558 21.5643C33.3364 19.3663 28.4887 13.2254 23.8574 10.667C20.9382 8.68511 17.8964 8.9574 17.2803 9.82765C15.9283 11.7374 21.7572 13.3557 25.6555 15.2441C24.8175 15.6093 24.0278 16.2646 23.5635 17.1027C22.1101 15.5107 18.9204 14.1398 15.1774 15.2441C12.6552 15.9883 10.559 17.7426 9.74879 20.3924C9.55195 20.3047 9.334 20.2559 9.1047 20.2559C8.22782 20.2559 7.51697 20.9692 7.51697 21.849C7.51697 22.7288 8.22782 23.4421 9.1047 23.4421C9.26723 23.4421 9.7754 23.3327 9.7754 23.3327L17.8964 23.3917C14.6486 28.5613 12.082 29.317 12.082 30.2126C12.082 31.1082 14.5378 30.8655 15.4599 30.5317C19.8741 28.9336 24.6152 23.953 25.4288 22.5192C28.8452 22.9468 31.7165 22.9975 32.3558 21.5643Z"
    fill="url(#paint0_linear_3235_2169)" />
  <path fill-rule="evenodd" clip-rule="evenodd"
    d="M25.655 15.2445C25.6552 15.2447 25.6554 15.2447 25.6556 15.2448C25.8363 15.1734 25.8071 14.9056 25.7575 14.6954C25.6434 14.2121 23.6759 12.2626 21.8281 11.3894C19.3106 10.1996 17.4567 10.2609 17.1826 10.8091C17.6954 11.8639 20.073 12.8541 22.5562 13.8883C23.6157 14.3295 24.6943 14.7787 25.6555 15.2443C25.6554 15.2444 25.6552 15.2445 25.655 15.2445Z"
    fill="url(#paint1_linear_3235_2169)" />
  <path fill-rule="evenodd" clip-rule="evenodd"
    d="M22.4601 25.8603C21.951 25.6651 21.3758 25.4859 20.7219 25.3234C21.4191 24.0716 21.5654 22.2185 20.9069 21.0468C19.9828 19.4025 18.8228 18.5273 16.1272 18.5273C14.6446 18.5273 10.6528 19.0284 10.5819 22.3719C10.5744 22.7227 10.5817 23.0442 10.607 23.3399L17.8964 23.3929C16.9137 24.9571 15.9933 26.1172 15.1875 26.9994C16.1549 27.2481 16.9533 27.457 17.6863 27.6487C18.3817 27.8306 19.0183 27.9971 19.6846 28.1677C20.6896 27.4329 21.6345 26.6318 22.4601 25.8603Z"
    fill="url(#paint2_linear_3235_2169)" />
  <path
    d="M9.65141 22.9962C9.94915 25.5361 11.3878 26.5315 14.3275 26.8261C17.2672 27.1207 18.9535 26.923 21.1985 27.128C23.0734 27.2991 24.7476 28.2578 25.3687 27.9266C25.9276 27.6284 25.6149 26.5512 24.867 25.8601C23.8975 24.9642 22.5557 24.3414 20.1947 24.1203C20.6653 22.8277 20.5334 21.0153 19.8027 20.0292C18.7461 18.6035 16.7958 17.9589 14.3275 18.2405C11.7487 18.5347 9.27767 19.8087 9.65141 22.9962Z"
    fill="url(#paint3_linear_3235_2169)" />
  <defs>
    <linearGradient id="paint0_linear_3235_2169" x1="14.8837" y1="19.6179" x2="32.1533" y2="24.4987"
      gradientUnits="userSpaceOnUse">
      <stop stop-color="white" />
      <stop offset="1" stop-color="white" />
    </linearGradient>
    <linearGradient id="paint1_linear_3235_2169" x1="29.238" y1="19.2888" x2="16.7415" y2="6.80382"
      gradientUnits="userSpaceOnUse">
      <stop stop-color="#8697FF" />
      <stop offset="1" stop-color="#8697FF" stop-opacity="0" />
    </linearGradient>
    <linearGradient id="paint2_linear_3235_2169" x1="22.8066" y1="26.2967" x2="10.8227" y2="19.4299"
      gradientUnits="userSpaceOnUse">
      <stop stop-color="#8697FF" />
      <stop offset="1" stop-color="#8697FF" stop-opacity="0" />
    </linearGradient>
    <linearGradient id="paint3_linear_3235_2169" x1="15.9141" y1="19.4897" x2="24.0345" y2="29.7728"
      gradientUnits="userSpaceOnUse">
      <stop stop-color="white" />
      <stop offset="0.983895" stop-color="#D1D8FF" />
    </linearGradient>
  </defs>
</svg>
