<svg viewBox="0 0 40 40" fill="none" xmlns="http://www.w3.org/2000/svg">
  <path
    d="M20 40.0018C31.0457 40.0018 40 31.0471 40 20.0009C40 8.95471 31.0457 0 20 0C8.9543 0 0 8.95471 0 20.0009C0 31.0471 8.9543 40.0018 20 40.0018Z"
    fill="#2962EF" />
  <path
    d="M10.5398 11.667C9.96647 11.667 9.74556 12.3733 10.2267 12.6684L22.2623 19.8987C22.5623 20.0827 22.9624 20.0101 23.1689 19.734L28.4607 12.8124C28.8204 12.3316 28.4569 11.667 27.8342 11.667H10.5398Z"
    fill="white" />
  <path
    d="M29.4564 28.3343C30.0297 28.3343 30.2563 27.6241 29.7753 27.3291L17.7362 20.0997C17.4362 19.9157 17.0458 19.9976 16.8393 20.2736L11.5373 27.1938C11.1776 27.6746 11.5524 28.3343 12.1751 28.3343H29.4564Z"
    fill="white" />
</svg>
