<svg width="48" height="48" viewBox="0 0 48 48" fill="none" xmlns="http://www.w3.org/2000/svg">
<rect y="0.00439453" width="48" height="48.0022" rx="24" fill="white"/>
<mask id="mask0_10338_392" style="mask-type:luminance" maskUnits="userSpaceOnUse" x="3" y="2" width="42" height="43">
<path d="M44.9994 2.52051H3.04041V44.4795H44.9994V2.52051Z" fill="white"/>
</mask>
<g mask="url(#mask0_10338_392)">
<path d="M38.3211 38.2122L31.2368 36.1027L25.8943 39.2964L22.1668 39.2948L16.8211 36.1027L9.73994 38.2122L7.58594 30.9407L9.73994 22.8704L7.58594 16.0471L9.73994 7.59058L20.8049 14.2013H27.2562L38.3211 7.59058L40.4751 16.0471L38.3211 22.8704L40.4751 30.9407L38.3211 38.2122Z" fill="#FF5C16"/>
<path d="M9.74158 7.59058L20.8066 14.206L20.3665 18.746L9.74158 7.59058Z" fill="#FF5C16"/>
<path d="M16.8226 30.9438L21.6911 34.6525L16.8226 36.1028V30.9438Z" fill="#FF5C16"/>
<path d="M21.302 24.8122L20.3663 18.749L14.3768 22.8718L14.3737 22.8703V22.8733L14.3922 27.1171L16.821 24.8122H16.8226H21.302Z" fill="#FF5C16"/>
<path d="M38.3211 7.59058L27.2561 14.206L27.6946 18.746L38.3211 7.59058Z" fill="#FF5C16"/>
<path d="M31.24 30.9438L26.3715 34.6525L31.24 36.1028V30.9438Z" fill="#FF5C16"/>
<path d="M33.6875 22.8733V22.8703L33.686 22.8718L27.6965 18.749L26.7607 24.8122H31.2402L33.6706 27.1171L33.6875 22.8733Z" fill="#FF5C16"/>
<path d="M16.8211 36.1025L9.73994 38.212L7.58594 30.9436H16.8211V36.1025Z" fill="#E34807"/>
<path d="M21.3006 24.8108L22.6533 33.576L20.7787 28.7025L14.3893 27.1173L16.8197 24.8108H21.2991H21.3006Z" fill="#E34807"/>
<path d="M31.2399 36.1025L38.3211 38.212L40.4751 30.9436H31.2399V36.1025Z" fill="#E34807"/>
<path d="M26.7605 24.8108L25.4078 33.576L27.2824 28.7025L33.6718 27.1173L31.2399 24.8108H26.7605Z" fill="#E34807"/>
<path d="M7.58594 30.9407L9.73994 22.8704H14.3722L14.3892 27.1157L20.7787 28.7009L22.6532 33.5744L21.6897 34.6478L16.8212 30.9391H7.58594V30.9407Z" fill="#FF8D5D"/>
<path d="M40.4751 30.9407L38.3211 22.8704H33.6888L33.6718 27.1157L27.2824 28.7009L25.4078 33.5744L26.3714 34.6478L31.2399 30.9391H40.4751V30.9407Z" fill="#FF8D5D"/>
<path d="M27.2562 14.2014H24.0306H20.805L20.3665 18.7415L22.6533 33.5699H25.4079L27.6963 18.7415L27.2562 14.2014Z" fill="#FF8D5D"/>
<path d="M9.73994 7.59058L7.58594 16.0471L9.73994 22.8704H14.3722L20.3649 18.746L9.73994 7.59058Z" fill="#661800"/>
<path d="M19.9619 26.5711H17.8634L16.7208 27.691L20.7802 28.6977L19.9619 26.5696V26.5711Z" fill="#661800"/>
<path d="M38.3212 7.59058L40.4752 16.0471L38.3212 22.8704H33.6889L27.6963 18.746L38.3212 7.59058Z" fill="#661800"/>
<path d="M28.1023 26.5711H30.2038L31.3464 27.6926L27.2823 28.7008L28.1023 26.5696V26.5711Z" fill="#661800"/>
<path d="M25.8927 36.4037L26.3713 34.651L25.4078 33.5776H22.6516L21.6881 34.651L22.1668 36.4037" fill="#661800"/>
<path d="M25.8926 36.4036V39.2979H22.1667V36.4036H25.8926Z" fill="#C0C4CD"/>
<path d="M16.8226 36.0997L22.1698 39.2965V36.4021L21.6911 34.6494L16.8226 36.0997Z" fill="#E7EBF6"/>
<path d="M31.2399 36.0997L25.8927 39.2965V36.4021L26.3714 34.6494L31.2399 36.0997Z" fill="#E7EBF6"/>
</g>
</svg>
