<svg xmlns="http://www.w3.org/2000/svg" width="40" height="40" viewBox="-10 -10 60 60" fill="none">
    <circle cx="20" cy="20" r="30" fill="#1f2324"/>
    <path d="M31.8511 23.6003H19.3988L27.1874 13.468C27.7637 12.7165 27.229 11.6293 26.2815 11.6293H11.0636L7.74561 15.9454L18.9651 15.9395C19.8688 15.9395 19.4434 16.6702 19.1553 17.0445L13.0034 25.047C12.1122 26.2055 12.938 27.8838 14.3995 27.8838H28.5925L31.8511 23.6033V23.6003Z"
          fill="#EA9C2F"></path>
    <path d="M31.4057 7.29533C32.8671 7.29533 34.1147 8.07954 34.7475 9.39546C35.3802 10.7114 35.0356 12.1758 34.1237 13.3195L29.16 19.7536H34.7801L37.6645 15.9989C39.6012 13.5749 39.9696 10.3282 38.621 7.53297C37.2783 4.73774 34.5128 3 31.4086 3H17.7919L14.4917 7.29533H31.4116H31.4057Z"
          fill="#EA9C2F"></path>
    <path d="M8.01604 32.5475C6.55456 32.5475 5.30696 31.7632 4.67424 30.4473C4.04153 29.1314 4.38611 27.6669 5.29804 26.5233L10.5202 19.7565H4.9L1.76019 23.8469C-0.176565 26.2708 -0.544906 29.5176 0.803696 32.3128C2.14636 35.108 4.91188 36.8458 8.01604 36.8458H21.6268L24.927 32.5504H8.01604V32.5475Z"
          fill="#EA9C2F"></path>
</svg>
